<svg xmlns="http://www.w3.org/2000/svg" width="900" height="677" viewBox="0 0 900 677">
<style>text{font-family:"JetBrains Mono","Fira Code",Consolas,"DejaVu Sans Mono",monospace;font-size:15px}</style>
<rect width="900" height="677" rx="12" fill="#1a1b26"/>
<path d="M12 0h876a12 12 0 0 1 12 12v24h-900v-24a12 12 0 0 1 12-12z" fill="#16161e"/>
<circle cx="24" cy="18" r="6" fill="#ff5f57"/><circle cx="44" cy="18" r="6" fill="#febc2e"/><circle cx="64" cy="18" r="6" fill="#28c840"/>
<text x="450.0" y="23" fill="#565f89" text-anchor="middle" font-size="13">micheledic@github: ~ — neofetch</text>
<g><animate attributeName="opacity" values="1;0" dur="1.2s" calcMode="discrete" repeatCount="indefinite"/><rect x="80" y="100" width="19" height="19" fill="#bb9af7"/><rect x="200" y="100" width="19" height="19" fill="#bb9af7"/><rect x="100" y="120" width="19" height="19" fill="#bb9af7"/><rect x="180" y="120" width="19" height="19" fill="#bb9af7"/><rect x="80" y="140" width="19" height="19" fill="#bb9af7"/><rect x="100" y="140" width="19" height="19" fill="#bb9af7"/><rect x="120" y="140" width="19" height="19" fill="#bb9af7"/><rect x="140" y="140" width="19" height="19" fill="#bb9af7"/><rect x="160" y="140" width="19" height="19" fill="#bb9af7"/><rect x="180" y="140" width="19" height="19" fill="#bb9af7"/><rect x="200" y="140" width="19" height="19" fill="#bb9af7"/><rect x="60" y="160" width="19" height="19" fill="#bb9af7"/><rect x="80" y="160" width="19" height="19" fill="#bb9af7"/><rect x="120" y="160" width="19" height="19" fill="#bb9af7"/><rect x="140" y="160" width="19" height="19" fill="#bb9af7"/><rect x="160" y="160" width="19" height="19" fill="#bb9af7"/><rect x="200" y="160" width="19" height="19" fill="#bb9af7"/><rect x="220" y="160" width="19" height="19" fill="#bb9af7"/><rect x="40" y="180" width="19" height="19" fill="#bb9af7"/><rect x="60" y="180" width="19" height="19" fill="#bb9af7"/><rect x="80" y="180" width="19" height="19" fill="#bb9af7"/><rect x="100" y="180" width="19" height="19" fill="#bb9af7"/><rect x="120" y="180" width="19" height="19" fill="#bb9af7"/><rect x="140" y="180" width="19" height="19" fill="#bb9af7"/><rect x="160" y="180" width="19" height="19" fill="#bb9af7"/><rect x="180" y="180" width="19" height="19" fill="#bb9af7"/><rect x="200" y="180" width="19" height="19" fill="#bb9af7"/><rect x="220" y="180" width="19" height="19" fill="#bb9af7"/><rect x="240" y="180" width="19" height="19" fill="#bb9af7"/><rect x="40" y="200" width="19" height="19" fill="#bb9af7"/><rect x="80" y="200" width="19" height="19" fill="#bb9af7"/><rect x="100" y="200" width="19" height="19" fill="#bb9af7"/><rect x="120" y="200" width="19" height="19" fill="#bb9af7"/><rect x="140" y="200" width="19" height="19" fill="#bb9af7"/><rect x="160" y="200" width="19" height="19" fill="#bb9af7"/><rect x="180" y="200" width="19" height="19" fill="#bb9af7"/><rect x="200" y="200" width="19" height="19" fill="#bb9af7"/><rect x="240" y="200" width="19" height="19" fill="#bb9af7"/><rect x="40" y="220" width="19" height="19" fill="#bb9af7"/><rect x="80" y="220" width="19" height="19" fill="#bb9af7"/><rect x="200" y="220" width="19" height="19" fill="#bb9af7"/><rect x="240" y="220" width="19" height="19" fill="#bb9af7"/><rect x="100" y="240" width="19" height="19" fill="#bb9af7"/><rect x="120" y="240" width="19" height="19" fill="#bb9af7"/><rect x="160" y="240" width="19" height="19" fill="#bb9af7"/><rect x="180" y="240" width="19" height="19" fill="#bb9af7"/></g><g opacity="0"><animate attributeName="opacity" values="0;1" dur="1.2s" calcMode="discrete" repeatCount="indefinite"/><rect x="80" y="100" width="19" height="19" fill="#bb9af7"/><rect x="200" y="100" width="19" height="19" fill="#bb9af7"/><rect x="40" y="120" width="19" height="19" fill="#bb9af7"/><rect x="100" y="120" width="19" height="19" fill="#bb9af7"/><rect x="180" y="120" width="19" height="19" fill="#bb9af7"/><rect x="240" y="120" width="19" height="19" fill="#bb9af7"/><rect x="40" y="140" width="19" height="19" fill="#bb9af7"/><rect x="80" y="140" width="19" height="19" fill="#bb9af7"/><rect x="100" y="140" width="19" height="19" fill="#bb9af7"/><rect x="120" y="140" width="19" height="19" fill="#bb9af7"/><rect x="140" y="140" width="19" height="19" fill="#bb9af7"/><rect x="160" y="140" width="19" height="19" fill="#bb9af7"/><rect x="180" y="140" width="19" height="19" fill="#bb9af7"/><rect x="200" y="140" width="19" height="19" fill="#bb9af7"/><rect x="240" y="140" width="19" height="19" fill="#bb9af7"/><rect x="40" y="160" width="19" height="19" fill="#bb9af7"/><rect x="60" y="160" width="19" height="19" fill="#bb9af7"/><rect x="80" y="160" width="19" height="19" fill="#bb9af7"/><rect x="120" y="160" width="19" height="19" fill="#bb9af7"/><rect x="140" y="160" width="19" height="19" fill="#bb9af7"/><rect x="160" y="160" width="19" height="19" fill="#bb9af7"/><rect x="200" y="160" width="19" height="19" fill="#bb9af7"/><rect x="220" y="160" width="19" height="19" fill="#bb9af7"/><rect x="240" y="160" width="19" height="19" fill="#bb9af7"/><rect x="40" y="180" width="19" height="19" fill="#bb9af7"/><rect x="60" y="180" width="19" height="19" fill="#bb9af7"/><rect x="80" y="180" width="19" height="19" fill="#bb9af7"/><rect x="100" y="180" width="19" height="19" fill="#bb9af7"/><rect x="120" y="180" width="19" height="19" fill="#bb9af7"/><rect x="140" y="180" width="19" height="19" fill="#bb9af7"/><rect x="160" y="180" width="19" height="19" fill="#bb9af7"/><rect x="180" y="180" width="19" height="19" fill="#bb9af7"/><rect x="200" y="180" width="19" height="19" fill="#bb9af7"/><rect x="220" y="180" width="19" height="19" fill="#bb9af7"/><rect x="240" y="180" width="19" height="19" fill="#bb9af7"/><rect x="60" y="200" width="19" height="19" fill="#bb9af7"/><rect x="80" y="200" width="19" height="19" fill="#bb9af7"/><rect x="100" y="200" width="19" height="19" fill="#bb9af7"/><rect x="120" y="200" width="19" height="19" fill="#bb9af7"/><rect x="140" y="200" width="19" height="19" fill="#bb9af7"/><rect x="160" y="200" width="19" height="19" fill="#bb9af7"/><rect x="180" y="200" width="19" height="19" fill="#bb9af7"/><rect x="200" y="200" width="19" height="19" fill="#bb9af7"/><rect x="220" y="200" width="19" height="19" fill="#bb9af7"/><rect x="80" y="220" width="19" height="19" fill="#bb9af7"/><rect x="200" y="220" width="19" height="19" fill="#bb9af7"/><rect x="60" y="240" width="19" height="19" fill="#bb9af7"/><rect x="220" y="240" width="19" height="19" fill="#bb9af7"/></g><text x="150" y="300" fill="#565f89" text-anchor="middle" font-size="12">PLAYER 1 · SCORE 007200</text><text x="300" y="78" font-weight="bold"><tspan fill="#9ece6a">micheledic</tspan><tspan fill="#c0caf5">@</tspan><tspan fill="#e0af68">github</tspan></text><text x="300" y="101" font-weight="bold"><tspan fill="#565f89">─────────────────</tspan></text><text x="300" y="124"><tspan fill="#7aa2f7" font-weight="bold">PRs</tspan><tspan fill="#565f89">: </tspan><tspan fill="#c0caf5">163 pubbliche</tspan></text><text x="300" y="147"><tspan fill="#7aa2f7" font-weight="bold">Merged</tspan><tspan fill="#565f89">: </tspan><tspan fill="#9ece6a">72  (59% merge rate)</tspan></text><text x="300" y="170"><tspan fill="#7aa2f7" font-weight="bold">Open</tspan><tspan fill="#565f89">: </tspan><tspan fill="#7dcfff">41</tspan></text><text x="300" y="193"><tspan fill="#7aa2f7" font-weight="bold">Closed</tspan><tspan fill="#565f89">: </tspan><tspan fill="#f7768e">50</tspan></text><text x="300" y="216"><tspan fill="#7aa2f7" font-weight="bold">Repos</tspan><tspan fill="#565f89">: </tspan><tspan fill="#c0caf5">21 con contributi</tspan></text><text x="300" y="239"><tspan fill="#7aa2f7" font-weight="bold">Branches</tspan><tspan fill="#565f89">: </tspan><tspan fill="#bb9af7">16.0 (61) · 18.0 (40) · 17.0 (26) · 19.0 (20)</tspan></text><text x="300" y="262"><tspan fill="#7aa2f7" font-weight="bold">Uptime</tspan><tspan fill="#565f89">: </tspan><tspan fill="#c0caf5">3y 6m (prima PR 2023-03-07)</tspan></text><text x="300" y="285"><tspan fill="#7aa2f7" font-weight="bold">Last merge</tspan><tspan fill="#565f89">: </tspan><tspan fill="#c0caf5">3g fa · odoo/odoo</tspan></text><text x="300" y="308"><tspan fill="#7aa2f7" font-weight="bold">Oldest open</tspan><tspan fill="#565f89">: </tspan><tspan fill="#ff9e64">1195 giorni</tspan></text><text x="300" y="331"><tspan fill="#7aa2f7" font-weight="bold">Commits (1y)</tspan><tspan fill="#565f89">: </tspan><tspan fill="#c0caf5">100</tspan></text><text x="300" y="354"><tspan fill="#7aa2f7" font-weight="bold">Reviews (1y)</tspan><tspan fill="#565f89">: </tspan><tspan fill="#c0caf5">32</tspan></text><text x="300" y="377"><tspan fill="#7aa2f7" font-weight="bold">Contribs (1y)</tspan><tspan fill="#565f89">: </tspan><tspan fill="#c0caf5">1552</tspan></text><text x="300" y="400"><tspan fill="#7aa2f7" font-weight="bold">Followers</tspan><tspan fill="#565f89">: </tspan><tspan fill="#c0caf5">1   ★ 0</tspan></text><rect x="300" y="417" width="26" height="16" rx="2" fill="#f7768e"/><rect x="330" y="417" width="26" height="16" rx="2" fill="#ff9e64"/><rect x="360" y="417" width="26" height="16" rx="2" fill="#e0af68"/><rect x="390" y="417" width="26" height="16" rx="2" fill="#9ece6a"/><rect x="420" y="417" width="26" height="16" rx="2" fill="#7dcfff"/><rect x="450" y="417" width="26" height="16" rx="2" fill="#7aa2f7"/><rect x="480" y="417" width="26" height="16" rx="2" fill="#bb9af7"/><rect x="510" y="417" width="26" height="16" rx="2" fill="#c0caf5"/><line x1="30" y1="453" x2="870" y2="453" stroke="#565f89" stroke-dasharray="4 4" opacity="0.5"/><text x="40" y="475" fill="#565f89"># top repos</text><text x="40" y="501" fill="#c0caf5">odoo/odoo</text><rect x="210" y="489" width="200" height="14" rx="3" fill="#bb9af7" opacity="0.85"><animate attributeName="width" from="0" to="200" dur="1.2s" fill="freeze"/></rect><text x="418" y="501" fill="#565f89">91</text><text x="40" y="525" fill="#c0caf5">OCA/l10n-italy</text><rect x="210" y="513" width="85" height="14" rx="3" fill="#bb9af7" opacity="0.85"><animate attributeName="width" from="0" to="85" dur="1.2s" fill="freeze"/></rect><text x="303" y="525" fill="#565f89">39</text><text x="40" y="549" fill="#c0caf5">OCA/account-fina…</text><rect x="210" y="537" width="15" height="14" rx="3" fill="#bb9af7" opacity="0.85"><animate attributeName="width" from="0" to="15" dur="1.2s" fill="freeze"/></rect><text x="233" y="549" fill="#565f89">7</text><text x="40" y="573" fill="#c0caf5">OCA/report-print…</text><rect x="210" y="561" width="13" height="14" rx="3" fill="#bb9af7" opacity="0.85"><animate attributeName="width" from="0" to="13" dur="1.2s" fill="freeze"/></rect><text x="231" y="573" fill="#565f89">6</text><text x="40" y="597" fill="#c0caf5">OCA/bank-payment</text><rect x="210" y="585" width="4" height="14" rx="3" fill="#bb9af7" opacity="0.85"><animate attributeName="width" from="0" to="4" dur="1.2s" fill="freeze"/></rect><text x="222" y="597" fill="#565f89">2</text><text x="480" y="475" fill="#565f89"># pr types</text><text x="480" y="501" fill="#c0caf5">FIX</text><rect x="650" y="489" width="180" height="14" rx="3" fill="#7dcfff" opacity="0.85"><animate attributeName="width" from="0" to="180" dur="1.2s" fill="freeze"/></rect><text x="838" y="501" fill="#565f89">91</text><text x="480" y="525" fill="#c0caf5">IMP</text><rect x="650" y="513" width="77" height="14" rx="3" fill="#7dcfff" opacity="0.85"><animate attributeName="width" from="0" to="77" dur="1.2s" fill="freeze"/></rect><text x="735" y="525" fill="#565f89">39</text><text x="480" y="549" fill="#c0caf5">MIG</text><rect x="650" y="537" width="25" height="14" rx="3" fill="#7dcfff" opacity="0.85"><animate attributeName="width" from="0" to="25" dur="1.2s" fill="freeze"/></rect><text x="683" y="549" fill="#565f89">13</text><text x="480" y="573" fill="#c0caf5">PERF</text><rect x="650" y="561" width="13" height="14" rx="3" fill="#7dcfff" opacity="0.85"><animate attributeName="width" from="0" to="13" dur="1.2s" fill="freeze"/></rect><text x="671" y="573" fill="#565f89">7</text><text x="480" y="597" fill="#c0caf5">altro</text><rect x="650" y="585" width="9" height="14" rx="3" fill="#7dcfff" opacity="0.85"><animate attributeName="width" from="0" to="9" dur="1.2s" fill="freeze"/></rect><text x="667" y="597" fill="#565f89">5</text><text x="40" y="647"><tspan fill="#9ece6a">❯ </tspan><tspan fill="#c0caf5">git push origin main </tspan><tspan fill="#c0caf5">█<animate attributeName="opacity" values="1;0" dur="1s" calcMode="discrete" repeatCount="indefinite"/></tspan></text>
</svg>